<svg width="35" height="35" viewBox="0 0 35 35" fill="none" xmlns="http://www.w3.org/2000/svg">
<g clip-path="url(#clip0_125_75)">
<path d="M31.7188 17.5H3.28125C2.41101 17.5 1.57641 17.8457 0.961056 18.4611C0.345702 19.0764 0 19.911 0 20.7812C0 21.6515 0.345702 22.4861 0.961056 23.1014C1.57641 23.7168 2.41101 24.0625 3.28125 24.0625H31.7188C32.589 24.0625 33.4236 23.7168 34.0389 23.1014C34.6543 22.4861 35 21.6515 35 20.7812C35 19.911 34.6543 19.0764 34.0389 18.4611C33.4236 17.8457 32.589 17.5 31.7188 17.5V17.5ZM32.8125 26.25H2.1875C1.89742 26.25 1.61922 26.3652 1.4141 26.5704C1.20898 26.7755 1.09375 27.0537 1.09375 27.3438V28.4375C1.09375 29.5978 1.55469 30.7106 2.37516 31.5311C3.19563 32.3516 4.30843 32.8125 5.46875 32.8125H29.5312C30.6916 32.8125 31.8044 32.3516 32.6248 31.5311C33.4453 30.7106 33.9062 29.5978 33.9062 28.4375V27.3438C33.9062 27.0537 33.791 26.7755 33.5859 26.5704C33.3808 26.3652 33.1026 26.25 32.8125 26.25ZM4.00859 15.3125H30.9914C33.3546 15.3125 34.7252 12.3115 33.3717 10.1254C30.625 5.6875 24.5786 2.19434 17.5 2.1875C10.4221 2.19434 4.375 5.6875 1.62832 10.1247C0.273438 12.3108 1.64541 15.3125 4.00859 15.3125ZM26.25 7.65625C26.4663 7.65625 26.6778 7.7204 26.8577 7.84058C27.0375 7.96076 27.1777 8.13158 27.2605 8.33144C27.3433 8.5313 27.3649 8.75121 27.3227 8.96338C27.2805 9.17555 27.1764 9.37043 27.0234 9.5234C26.8704 9.67636 26.6755 9.78053 26.4634 9.82273C26.2512 9.86494 26.0313 9.84328 25.8314 9.76049C25.6316 9.67771 25.4608 9.53752 25.3406 9.35766C25.2204 9.17779 25.1562 8.96632 25.1562 8.75C25.1562 8.45992 25.2715 8.18172 25.4766 7.9766C25.6817 7.77148 25.9599 7.65625 26.25 7.65625V7.65625ZM17.5 5.46875C17.7163 5.46875 17.9278 5.5329 18.1077 5.65308C18.2875 5.77326 18.4277 5.94408 18.5105 6.14394C18.5933 6.3438 18.6149 6.56371 18.5727 6.77588C18.5305 6.98805 18.4264 7.18293 18.2734 7.3359C18.1204 7.48886 17.9255 7.59303 17.7134 7.63523C17.5012 7.67744 17.2813 7.65578 17.0814 7.57299C16.8816 7.49021 16.7108 7.35002 16.5906 7.17015C16.4704 6.99029 16.4062 6.77882 16.4062 6.5625C16.4062 6.27242 16.5215 5.99422 16.7266 5.7891C16.9317 5.58398 17.2099 5.46875 17.5 5.46875V5.46875ZM8.75 7.65625C8.96632 7.65625 9.17779 7.7204 9.35766 7.84058C9.53752 7.96076 9.67771 8.13158 9.76049 8.33144C9.84328 8.5313 9.86494 8.75121 9.82273 8.96338C9.78053 9.17555 9.67636 9.37043 9.5234 9.5234C9.37043 9.67636 9.17555 9.78053 8.96338 9.82273C8.75121 9.86494 8.5313 9.84328 8.33144 9.76049C8.13158 9.67771 7.96076 9.53752 7.84058 9.35766C7.7204 9.17779 7.65625 8.96632 7.65625 8.75C7.65625 8.45992 7.77148 8.18172 7.9766 7.9766C8.18172 7.77148 8.45992 7.65625 8.75 7.65625V7.65625Z" fill="#BDBDBD"/>
</g>
<defs>
<clipPath id="clip0_125_75">
<rect width="35" height="35" fill="white"/>
</clipPath>
</defs>
</svg>
